<?xml version="1.0" encoding="utf-8"?>
<!-- Generator: Adobe Illustrator 25.0.0, SVG Export Plug-In . SVG Version: 6.00 Build 0)  -->
<svg version="1.1" id="Camada_1" xmlns="http://www.w3.org/2000/svg" xmlns:xlink="http://www.w3.org/1999/xlink" x="0px" y="0px"
	 viewBox="0 0 186 186" style="enable-background:new 0 0 186 186;" xml:space="preserve">
<style type="text/css">
	.st0{fill:#FFFFFF;}
	.st1{fill:#1D4E89;}
</style>
<path class="st0" d="M93,0L93,0c51.4,0,93,41.6,93,93l0,0c0,51.4-41.6,93-93,93l0,0c-51.4,0-93-41.6-93-93l0,0C0,41.6,41.6,0,93,0z"
	/>
<path class="st1" d="M79.9,98.6c4.8-1.1,9.1-1.7,13.1-1.7s8.4,0.6,13.1,1.7s9.1,3,12.9,5.6c4,2.6,6,5.6,6,8.8v12H60.9v-12
	c0-3.2,1.9-6.2,5.8-8.8C70.8,101.6,75.1,99.7,79.9,98.6z M81.8,65.8c3.1-3.2,6.9-4.9,11.2-4.9s8.1,1.6,11.2,4.9
	c3.1,3.1,4.7,6.9,4.7,11.2s-1.6,8.1-4.7,11.2S97.4,93,93,93s-8.1-1.6-11.2-4.7s-4.7-6.9-4.7-11.2S78.6,68.9,81.8,65.8z M109.3,107.8
	c-5.4-2.1-10.8-3.2-16.3-3.2s-10.9,1.1-16.3,3.2c-5.4,2-8.1,3.8-8.1,5.2v4.3h48.8v-4.3C117.4,111.6,114.7,109.8,109.3,107.8z
	 M99,71.1c-1.6-1.6-3.6-2.4-6-2.4s-4.4,0.8-6,2.4s-2.4,3.6-2.4,6s0.8,4.4,2.4,6c1.6,1.5,3.6,2.2,6,2.2s4.4-0.8,6-2.2
	c1.6-1.6,2.4-3.6,2.4-6S100.6,72.7,99,71.1z"/>
</svg>
